<svg xmlns="http://www.w3.org/2000/svg" id="Layer_1" data-name="Layer 1" viewBox="0 0 209.78 245.04" width="209.78" height="245.04"><defs>
    <style>
      .cls-1 {
        fill: #ad2624;
      }
    </style>
  </defs><path class="cls-1" d="M199.84.29l4.96,79.41-5.4-.81c-9.14-35.04-33.03-63.64-71.12-66.18C56.16,7.89,36.15,78.36,39.34,137.22c2.63,48.62,28.61,89.23,80.64,92.23,32.11,1.85,52.37-8.82,72.84-32.29,2.09-2.39,10.77-14.72,11.98-15.38,1.33-.73,4.94,1.89,4.98,3.34-14.87,28.3-39.09,50.64-71.12,57.14C50.56,260.13-10.66,189.37,1.55,104.32,11.09,37.87,71.08-10.19,138.65,2.34c12.79,2.37,20.75,6.83,32.27,11.57,7.03,2.9,12.1,4.85,17.78-2.02,4.47-5.41,2.6-13.51,11.15-11.6Z"></path></svg>